<!DOCTYPE svg PUBLIC "-//W3C//DTD SVG 1.1//EN" "http://www.w3.org/Graphics/SVG/1.1/DTD/svg11.dtd">

<!-- Uploaded to: SVG Repo, www.svgrepo.com, Transformed by: SVG Repo Mixer Tools -->
<svg  viewBox="-12.6 -12.6 200 45.20" version="1.1" xmlns="http://www.w3.org/2000/svg" fill="#ffffff" stroke="#ffffff">
    <text x="30" y="20" font-family="Arial, Helvetica, sans-serif" font-size="24" fill="white">Ancile</text>

<g id="SVGRepo_bgCarrier" stroke-width="0" transform="translate(3.5,3.5), scale(0.65)">

<path transform="translate(-12.6, -12.6), scale(2.825)" fill="#4ca6ff" d="M9.166.33a2.25 2.25 0 00-2.332 0l-5.25 3.182A2.25 2.25 0 00.5 5.436v5.128a2.25 2.25 0 001.084 1.924l5.25 3.182a2.25 2.25 0 002.332 0l5.25-3.182a2.25 2.25 0 001.084-1.924V5.436a2.25 2.25 0 00-1.084-1.924L9.166.33z" strokewidth="0"/>

</g>

<g id="SVGRepo_tracerCarrier" stroke-linecap="round" stroke-linejoin="round" stroke="#CCCCCC" stroke-width="0.08"/>

<g id="SVGRepo_iconCarrier"> <g id="layer1"> <path d="M 5.1308594 3 L 0.82226562 17 L 1.5 17 L 19.177734 17 L 14.869141 3 L 5.1308594 3 z M 5.8691406 4 L 14.130859 4 L 17.822266 16 L 2.1777344 16 L 5.8691406 4 z " style="fill:#222222; fill-opacity:1;  stroke-width:2;"/> </g> </g>


</svg>